<?xml version="1.0" encoding="UTF-8"?>
<svg version="1.1" xmlns="http://www.w3.org/2000/svg" width="512" height="512">
<path d="M0 0 C1.01790619 0.00215515 2.03581238 0.0043103 3.08456421 0.00653076 C17.69363523 0.05620146 32.02575853 0.30709809 46.375 3.3125 C47.34985352 3.51117676 48.32470703 3.70985352 49.32910156 3.91455078 C97.7109774 14.03517194 141.69928269 35.9516877 177.375 70.3125 C178.3640332 71.26068604 178.3640332 71.26068604 179.37304688 72.22802734 C188.86130305 81.37247479 197.6012044 90.66984009 205.375 101.3125 C206.23306152 102.46355017 207.09113451 103.61459177 207.94921875 104.765625 C213.98736829 112.95680614 219.34595521 121.47054105 224.375 130.3125 C224.73948242 130.94430176 225.10396484 131.57610352 225.47949219 132.22705078 C247.08534998 169.97532572 256.85198095 212.74189997 256.6875 255.9375 C256.68534485 256.95540619 256.6831897 257.97331238 256.68096924 259.02206421 C256.63129854 273.63113523 256.38040191 287.96325853 253.375 302.3125 C253.07698486 303.77478027 253.07698486 303.77478027 252.77294922 305.26660156 C242.65232806 353.6484774 220.7358123 397.63678269 186.375 433.3125 C185.74287598 433.97185547 185.11075195 434.63121094 184.45947266 435.31054688 C175.31502521 444.79880305 166.01765991 453.5387044 155.375 461.3125 C154.22394983 462.17056152 153.07290823 463.02863451 151.921875 463.88671875 C143.73224019 469.92427396 135.22961724 475.30707302 126.375 480.3125 C125.66778809 480.7146875 124.96057617 481.116875 124.23193359 481.53125 C101.09654164 494.5566741 75.92537591 503.30551461 49.9375 508.625 C49.21860596 508.77235596 48.49971191 508.91971191 47.7590332 509.0715332 C33.08339502 511.86090125 18.55831162 512.66142619 3.64770508 512.62817383 C0.70811513 512.6250221 -2.2304558 512.64854926 -5.16992188 512.67382812 C-18.54306192 512.71848737 -31.43916711 511.51301542 -44.625 509.3125 C-46.33055054 509.03031616 -46.33055054 509.03031616 -48.07055664 508.74243164 C-91.33802759 500.97044532 -132.38793216 480.98345309 -165.625 452.3125 C-166.37007813 451.67828125 -167.11515625 451.0440625 -167.8828125 450.390625 C-181.38779833 438.57948485 -194.05918743 425.82889772 -204.625 411.3125 C-205.48149066 410.16255169 -206.33826433 409.01281411 -207.1953125 407.86328125 C-213.23534209 399.67315742 -218.61867614 391.16870382 -223.625 382.3125 C-224.0271875 381.60528809 -224.429375 380.89807617 -224.84375 380.16943359 C-237.8691741 357.03404164 -246.61801461 331.86287591 -251.9375 305.875 C-252.08485596 305.15610596 -252.23221191 304.43721191 -252.3840332 303.6965332 C-255.35789088 288.05024391 -255.99800362 272.57681954 -255.9375 256.6875 C-255.93534485 255.66959381 -255.9331897 254.65168762 -255.93096924 253.60293579 C-255.88129854 238.99386477 -255.63040191 224.66174147 -252.625 210.3125 C-252.42632324 209.33764648 -252.22764648 208.36279297 -252.02294922 207.35839844 C-241.90232806 158.9765226 -219.9858123 114.98821731 -185.625 79.3125 C-184.99287598 78.65314453 -184.36075195 77.99378906 -183.70947266 77.31445312 C-174.56502521 67.82619695 -165.26765991 59.0862956 -154.625 51.3125 C-153.47394983 50.45443848 -152.32290823 49.59636549 -151.171875 48.73828125 C-142.98224019 42.70072604 -134.47961724 37.31792698 -125.625 32.3125 C-124.91778809 31.9103125 -124.21057617 31.508125 -123.48193359 31.09375 C-100.34654164 18.0683259 -75.17537591 9.31948539 -49.1875 4 C-48.46860596 3.85264404 -47.74971191 3.70528809 -47.0090332 3.5534668 C-31.36274391 0.57960912 -15.88931954 -0.06050362 0 0 Z M-40.625 25.3125 C-41.53459473 25.48410645 -42.44418945 25.65571289 -43.38134766 25.83251953 C-63.67760489 29.8009822 -83.02477449 36.29633046 -101.625 45.3125 C-102.8620166 45.90756348 -102.8620166 45.90756348 -104.12402344 46.51464844 C-122.99100561 55.69529775 -140.04578742 67.2659932 -155.625 81.3125 C-156.18300293 81.81023926 -156.74100586 82.30797852 -157.31591797 82.82080078 C-163.83204988 88.646796 -170.06386087 94.55066038 -175.625 101.3125 C-176.3571875 102.15683594 -177.089375 103.00117187 -177.84375 103.87109375 C-189.58936019 117.5681107 -199.36790755 132.27822574 -207.625 148.3125 C-208.04523438 149.12170898 -208.46546875 149.93091797 -208.8984375 150.76464844 C-219.40193843 171.20668926 -226.41669012 192.73361262 -230.625 215.3125 C-230.87056641 216.60631592 -230.87056641 216.60631592 -231.12109375 217.92626953 C-235.76339107 243.55002426 -235.56339356 271.759752 -230.625 297.3125 C-230.42632324 298.34487793 -230.22764648 299.37725586 -230.02294922 300.44091797 C-221.56608314 342.9152903 -202.20671643 380.95071837 -173.625 413.3125 C-173.15529785 413.84536621 -172.6855957 414.37823242 -172.20166016 414.92724609 C-166.68549487 421.15056383 -161.0485901 427.01067655 -154.625 432.3125 C-153.779375 433.04597656 -152.93375 433.77945312 -152.0625 434.53515625 C-138.3654421 446.27815018 -123.65789811 456.05611623 -107.625 464.3125 C-106.41118652 464.94285156 -106.41118652 464.94285156 -105.17285156 465.5859375 C-84.73081074 476.08943843 -63.20388738 483.10419012 -40.625 487.3125 C-39.33118408 487.55806641 -39.33118408 487.55806641 -38.01123047 487.80859375 C-12.3398197 492.45952499 15.76852653 492.17261153 41.375 487.3125 C42.26719238 487.14621094 43.15938477 486.97992188 44.07861328 486.80859375 C83.78849654 479.15982009 120.75243142 461.72950938 151.375 435.3125 C152.68791016 434.19488281 152.68791016 434.19488281 154.02734375 433.0546875 C177.10180335 412.85973617 195.1406751 389.4451984 209.375 362.3125 C209.70419434 361.69745605 210.03338867 361.08241211 210.37255859 360.44873047 C221.81785637 338.80330144 228.56656983 314.38581061 232.375 290.3125 C232.56763428 289.17240479 232.56763428 289.17240479 232.76416016 288.00927734 C242.18643664 230.72447191 225.3725755 168.31981855 192.05517578 121.45605469 C189.28018652 117.64297833 186.35809525 113.96584767 183.375 110.3125 C182.15296875 108.78496094 182.15296875 108.78496094 180.90625 107.2265625 C169.80733062 93.56700625 157.26543398 80.95184652 143.0546875 70.54345703 C141.3779241 69.31464293 139.72012847 68.06305492 138.0625 66.80859375 C117.3318763 51.33915106 93.9694952 40.1010066 69.375 32.3125 C68.26439209 31.95696045 68.26439209 31.95696045 67.13134766 31.59423828 C45.57986228 24.81372379 23.21015371 22.08020956 0.6875 22.0625 C-0.08645111 22.06182526 -0.86040222 22.06115051 -1.6578064 22.06045532 C-14.84067079 22.07863155 -27.64527154 22.85467224 -40.625 25.3125 Z " fill="#000000" transform="translate(255.625,-0.3125)"/>
<path d="M0 0 C17.16 0 34.32 0 52 0 C52.09053889 21.35011453 52.16412029 42.70007193 52.20724869 64.05033016 C52.22781244 73.96518295 52.25581375 83.87990738 52.30175781 93.79467773 C52.34181608 102.44346111 52.36747769 111.09215145 52.37635398 119.74102503 C52.3815368 124.31415592 52.39358691 128.8870208 52.42292023 133.46006584 C52.45039064 137.77831799 52.45838231 142.09619857 52.45243073 146.4145298 C52.45351702 147.98610337 52.46128045 149.55769144 52.4768219 151.12918854 C52.67925514 172.68477501 47.33312192 192.07619601 32 208 C14.64053745 224.71552577 -8.85256863 230.61301678 -32.46875 230.1875 C-55.18426721 228.98136634 -75.70497181 222.22499226 -92 206 C-95.3167617 202.22604979 -98.21213883 198.17591019 -101 194 C-101.48726562 193.27039063 -101.97453125 192.54078125 -102.4765625 191.7890625 C-103.625 189.9375 -103.625 189.9375 -105 187 C-103.7220314 183.1660942 -102.52549332 182.89363185 -99.03125 180.99609375 C-97.99242676 180.42455566 -96.95360352 179.85301758 -95.88330078 179.26416016 C-94.76681152 178.6613623 -93.65032227 178.05856445 -92.5 177.4375 C-90.21521515 176.18529039 -87.93136445 174.93137484 -85.6484375 173.67578125 C-83.95605957 172.74693115 -83.95605957 172.74693115 -82.22949219 171.79931641 C-77.09340672 168.9377387 -72.05115185 165.92162158 -67.04101562 162.84545898 C-62.32012676 160 -62.32012676 160 -59 160 C-57.4921875 161.9765625 -57.4921875 161.9765625 -55.875 164.625 C-51.46646109 171.16371528 -46.33726072 175.36430346 -38.625 177.375 C-28.90958 179.01110372 -18.66158368 178.74482348 -9.89453125 173.81640625 C-4.79873163 169.98097498 -2.61442598 165.05608645 -1 159 C-0.43260951 153.7529872 -0.43454726 148.53813828 -0.45410156 143.26904297 C-0.44535259 141.70107505 -0.43486222 140.13311603 -0.42277527 138.56517029 C-0.39505649 134.33648659 -0.39150744 130.10809625 -0.39249516 125.87933493 C-0.38935384 121.44969299 -0.36371038 117.02018083 -0.34051514 112.59060669 C-0.30004463 104.21506511 -0.27963553 95.83960122 -0.26654124 87.46397698 C-0.2506408 77.92334928 -0.21221241 68.38285321 -0.17194796 58.84230208 C-0.08967147 39.22821954 -0.03847617 19.61422074 0 0 Z " fill="#000000" transform="translate(276,141)"/>
</svg>
